<?xml version="1.0" encoding="UTF-8" standalone="no"?>
<svg
  xmlns="http://www.w3.org/2000/svg"
  version="1.1"
  width="768"
  height="768"
  viewbox="0 0 768 768">
  <path
    d="m 525.93296,112.25862 c -6.72142,20.20496 -14.29547,45.12125 -22.72219,74.74891 -8.42736,29.6288 -17.52239,61.45114 -27.28513,95.46712 -9.76333,34.01692 -19.35679,69.21007 -28.78042,105.57957 -9.42415,36.37022 -18.51405,71.72781 -27.26971,106.07287 -18.1903,1.33624 -36.37523,1.16667 -54.55484,-0.5087 -18.17998,-1.67489 -34.0115,-5.88327 -47.49463,-12.62515 6.74151,-71.40347 11.62816,-142.12378 14.65998,-212.16115 3.03154,-70.03643 4.54738,-139.73932 4.54753,-209.1089 28.2818,-3.370133 57.40646,-8.590785 87.37406,-15.661972 29.96713,-7.069791 56.73838,-16.000395 80.31385,-26.791837 15.49722,4.728086 25.43495,13.992688 29.81325,27.793834 4.37759,13.802539 1.51034,36.20098 -8.60175,67.195405 z m -77.78575,553.59521 c -5.38535,26.26777 -16.83377,46.98081 -34.34534,62.13918 -17.51203,15.15841 -42.43344,22.7376 -74.76433,22.73761 -37.71629,-1e-5 -66.50695,-10.60575 -86.37208,-31.81724 -19.86526,-21.21144 -25.75905,-52.03178 -17.68137,-92.46112 5.38502,-26.9253 17.5066,-47.62806 36.36475,-62.10835 18.85797,-14.47995 45.45966,-21.72001 79.80514,-21.7202 14.16137,1.9e-4 27.97349,2.69274 41.43641,8.07763 13.46249,5.38527 24.91093,13.29846 34.34534,23.73961 9.43393,10.44146 16.33998,23.23617 20.71819,38.38416 4.3777,15.14823 4.54212,32.82446 0.49329,53.02872 z"
    style="fill:#000000;stroke:#ffffff;stroke-width:32"/>
</svg>
